<svg width="57" height="57" viewBox="0 0 57 57" fill="none" xmlns="http://www.w3.org/2000/svg">
<circle cx="28.5" cy="28.5" r="28.5" fill="#FCFCFF"/>
<path d="M44.3926 28.305L41.1426 24.2425C40.9913 24.051 40.7987 23.896 40.5793 23.7891C40.3599 23.6822 40.1192 23.6261 39.8751 23.625H30.1251V13.875C30.1251 13.444 29.9539 13.0307 29.6491 12.726C29.3444 12.4212 28.9311 12.25 28.5001 12.25C28.0691 12.25 27.6558 12.4212 27.351 12.726C27.0463 13.0307 26.8751 13.444 26.8751 13.875V15.5H17.1251C16.881 15.5011 16.6403 15.5572 16.4209 15.6641C16.2015 15.771 16.0089 15.926 15.8576 16.1175L12.6076 20.18C12.3809 20.4669 12.2576 20.8219 12.2576 21.1875C12.2576 21.5531 12.3809 21.9081 12.6076 22.195L15.8576 26.2575C16.0089 26.449 16.2015 26.604 16.4209 26.7109C16.6403 26.8178 16.881 26.8739 17.1251 26.875H26.8751V41.5H23.6251C23.1941 41.5 22.7808 41.6712 22.476 41.976C22.1713 42.2807 22.0001 42.694 22.0001 43.125C22.0001 43.556 22.1713 43.9693 22.476 44.274C22.7808 44.5788 23.1941 44.75 23.6251 44.75H33.3751C33.8061 44.75 34.2194 44.5788 34.5241 44.274C34.8289 43.9693 35.0001 43.556 35.0001 43.125C35.0001 42.694 34.8289 42.2807 34.5241 41.976C34.2194 41.6712 33.8061 41.5 33.3751 41.5H30.1251V35H39.8751C40.1192 34.9989 40.3599 34.9428 40.5793 34.8359C40.7987 34.729 40.9913 34.574 41.1426 34.3825L44.3926 30.32C44.6193 30.0331 44.7426 29.6781 44.7426 29.3125C44.7426 28.9469 44.6193 28.5919 44.3926 28.305ZM26.8751 23.625H17.9051L15.9551 21.1875L17.9051 18.75H26.8751V23.625ZM39.0951 31.75H30.1251V26.875H39.0951L41.0451 29.3125L39.0951 31.75Z" fill="#6754DF"/>
</svg>
