<svg width="74" height="73" viewBox="0 0 74 73" fill="none" xmlns="http://www.w3.org/2000/svg">
<circle cx="37" cy="36.5" r="36.5" fill="#FCFCFF"/>
<rect x="29.9508" y="14" width="14.5166" height="5.36483" rx="2.68242" fill="#8F7EF8"/>
<rect x="8" y="30.9539" width="18.0194" height="17.4563" rx="6" fill="#8F7EF8"/>
<rect x="47.9806" y="30.9537" width="18.0194" height="17.4563" rx="6" fill="#8F7EF8"/>
<path d="M12.2014 31.7295C12.3741 26.6181 16.3729 22.4605 21.4797 22.1844C26.3527 21.921 32.32 21.6629 37.0003 21.6626C41.6876 21.6623 47.6524 21.9202 52.5223 22.1837C57.6285 22.46 61.6264 26.6173 61.799 31.728L62.0585 39.4091L61.788 47.4004C61.62 52.3638 57.835 56.4531 52.8863 56.87C47.9539 57.2854 41.8086 57.702 37.0003 57.7015C32.1994 57.7009 26.052 57.2842 21.1166 56.8689C16.1668 56.4523 12.3805 52.3625 12.2124 47.3981L11.942 39.4091L12.2014 31.7295Z" fill="#E4E4FF"/>
<path d="M18.0006 35.0838C18.1518 30.9861 21.3747 27.6658 25.4703 27.4653C29.1986 27.2828 33.699 27.1077 37.2457 27.1075C40.7976 27.1073 45.2963 27.2823 49.0222 27.4648C53.1173 27.6653 56.3396 30.9855 56.4908 35.0827L56.661 39.6936L56.482 44.5338C56.3344 48.5229 53.2708 51.7939 49.2905 52.0973C45.5153 52.3851 40.886 52.6672 37.2457 52.6668C33.611 52.6665 28.9802 52.3843 25.2027 52.0965C21.2217 51.7933 18.1569 48.522 18.0094 44.5321L17.8304 39.6936L18.0006 35.0838Z" fill="#041838"/>
<path d="M40.6146 43.2333H33.045C32.203 43.2333 31.9757 43.9554 32.203 44.6353C32.3863 45.1835 32.9643 46.4152 33.8862 47.1588C34.8838 47.9634 35.6888 48.2803 36.9705 48.2803C38.2521 48.2803 39.0571 47.9634 40.0547 47.1588C40.8959 46.4803 41.5554 45.1778 41.7362 44.6353C42.0166 43.7941 41.5895 43.2333 40.6146 43.2333Z" fill="#E4E4FF"/>
<rect x="45.1624" y="33.4851" width="6.72928" height="11.5906" rx="3" fill="#E4E4FF"/>
<rect x="23.1476" y="33.4851" width="6.72928" height="11.5906" rx="3" fill="#E4E4FF"/>
</svg>
