<svg width="18" height="18" viewBox="0 0 18 18" fill="none" xmlns="http://www.w3.org/2000/svg">
<path d="M15.1201 5.51L6.56007 1.23C0.810069 -1.65 -1.54993 0.709997 1.33007 6.46L2.20007 8.2C2.45007 8.71 2.45007 9.3 2.20007 9.81L1.33007 11.54C-1.54993 17.29 0.800068 19.65 6.56007 16.77L15.1201 12.49C18.9601 10.57 18.9601 7.43 15.1201 5.51ZM11.8901 9.75H6.49007C6.08007 9.75 5.74007 9.41 5.74007 9C5.74007 8.59 6.08007 8.25 6.49007 8.25H11.8901C12.3001 8.25 12.6401 8.59 12.6401 9C12.6401 9.41 12.3001 9.75 11.8901 9.75Z" fill="#8F7EF8"/>
</svg>
